<?xml version="1.0"?>
<svg width="528" height="528" xmlns="http://www.w3.org/2000/svg" xmlns:svg="http://www.w3.org/2000/svg">
 <g>
  <title>Layer 1</title>
  <g stroke="null" id="css3">
   <path fill-rule="evenodd" fill="#fbfbfb" d="m113.873021,99.781264c0,2.165815 5.942108,50.359828 6.562234,53.225103l0.487903,2.254405l73.854558,0.051567c67.792127,0.0476 73.5478,0.179823 70.099421,1.609156c-2.065325,0.856806 -3.756459,1.960869 -3.756459,2.452739c0,0.49187 -0.770861,0.895151 -1.71229,0.895151c-0.942751,0 -10.296216,3.560769 -20.785478,7.912233c-10.489262,4.351464 -29.551872,12.239896 -42.36165,17.530144c-55.947578,23.102027 -69.887864,28.897368 -70.21181,29.192225c-0.190401,0.17189 0.598971,11.77976 1.753279,25.796735c1.152986,14.015653 2.097059,26.371906 2.097059,27.457458c0,1.945002 1.389665,1.980703 100.783123,2.582318c55.430585,0.334525 100.883612,0.745739 101.005258,0.91234c0.61616,0.846228 -4.391131,73.256909 -5.113069,73.943147c-0.465425,0.441625 -15.537541,4.921345 -33.494766,9.956403l-32.648538,9.15513l-31.291929,-7.977022c-17.211486,-4.388486 -31.524641,-8.209735 -31.807599,-8.492692c-0.28428,-0.28428 -1.372476,-10.538184 -2.419683,-22.787336c-1.047207,-12.249152 -2.061359,-22.429011 -2.254405,-22.622057c-0.193046,-0.193046 -13.387593,-0.230068 -29.321804,-0.084623l-28.97009,0.265769l3.814638,44.028984c2.098381,24.216668 3.911161,44.112284 4.027517,44.212774c0.116356,0.10049 27.033021,8.092056 59.81246,17.757568l59.600903,17.5751l59.099777,-17.133475c32.505737,-9.423543 59.267701,-17.261731 59.472647,-17.417754c0.204946,-0.156023 3.825215,-39.858666 8.045778,-88.227213l7.674231,-87.942933l-67.145556,-0.501126l-67.146878,-0.501126l5.509738,-2.566451c3.030554,-1.413465 34.391239,-14.865848 69.692173,-29.896974l64.182435,-27.329201l2.693385,-27.199622c1.479577,-14.959726 2.685452,-27.762893 2.678841,-28.451776c-0.009256,-0.99564 -29.935319,-1.252153 -146.258628,-1.252153c-133.957909,0 -146.246728,0.13619 -146.246728,1.617089" id="path0"/>
   <path fill-rule="evenodd" fill="#2162af" d="m27.727,3.410428c0,1.326198 9.691956,107.112644 21.536505,235.083489c11.844549,127.969523 21.536505,233.62639 21.536505,234.793921c0,2.02037 183.792811,52.891901 190.821793,52.817856c2.171104,-0.0238 188.912491,-50.063648 189.675418,-50.826575c0.363614,-0.363614 44.050139,-468.048764 44.185007,-473.026965c0.027767,-0.998285 -47.394063,-1.252153 -233.860425,-1.252153l-233.894803,0l0,2.410428m423.128596,39.911555c-0.252546,1.790301 -8.119823,91.378091 -17.482544,199.085739c-9.362721,107.706326 -17.247187,197.217426 -17.520888,198.913849l-0.497159,3.083444l-75.864349,20.351786c-41.725657,11.194011 -76.428942,20.559376 -77.117825,20.813245c-0.98374,0.363614 -1.252153,-5.846907 -1.252153,-28.978024l0,-29.440805l-59.072011,-17.419077c-32.48987,-9.580889 -59.466036,-17.679556 -59.946006,-17.996892c-0.732516,-0.482614 -8.253368,-81.085841 -8.209735,-87.974667l0.013222,-2.253082l30.051676,0l30.050353,0l0.079334,3.756459c0.043634,2.065325 0.833006,12.504342 1.753279,23.19855l1.672623,19.442091l30.551479,7.840832c16.804239,4.311797 31.116072,7.846121 31.803632,7.852732c0.98374,0.010578 1.252153,-9.862524 1.252153,-46.063898l0,-46.078442l-65.590611,0l-65.591934,0l-0.469392,-2.253082c-0.683594,-3.279134 -4.601365,-54.150665 -4.202051,-54.549979c0.186435,-0.186435 29.139336,-12.276919 64.339781,-26.869065c77.172036,-31.991389 71.514208,-29.525427 71.514208,-31.172928c0,-1.11993 -12.049495,-1.349998 -70.619057,-1.349998c-38.840548,0 -70.621702,-0.113712 -70.625669,-0.251224c-0.005289,-0.137512 -1.578744,-12.645821 -3.498624,-27.795949c-1.91988,-15.15145 -3.494658,-28.11064 -3.498624,-28.799522c-0.006611,-0.990351 15.480685,-1.252153 74.117682,-1.252153l74.124293,0l0,-28.548298l0,-28.548298l95.097528,0l95.09885,0l-0.461459,3.256656" id="path1"/>
   <path fill-rule="evenodd" fill="#369cd6" d="m261.120678,68.608337l0,28.541687l-73.874391,0.325269c-40.630849,0.179823 -8.0114,0.128256 72.488693,-0.113712c84.6995,-0.255191 146.595797,-0.066112 146.913132,0.448236c0.608226,0.98374 -4.824822,55.886755 -5.664439,57.246009c-0.289569,0.46807 -31.129294,13.890041 -68.533899,29.826896l-68.006328,28.976701l65.952903,0.257835c51.750815,0.202301 65.954225,0.524926 65.958192,1.502055c0.006611,1.733445 -15.233428,176.499382 -15.410607,176.718873c-0.079334,0.097845 -26.958976,7.988922 -59.733126,17.536755l-59.589003,17.356932l-0.265769,29.406427c-0.211557,23.379696 -0.005289,29.309904 1.002251,28.938357c0.696816,-0.257835 35.406713,-9.625845 77.132369,-20.819856l75.864349,-20.351786l0.497159,-3.083444c0.273702,-1.696423 8.158168,-91.207523 17.520888,-198.913849c9.362721,-107.707649 17.229998,-197.295438 17.482544,-199.085739l0.461459,-3.256656l-95.09885,0l-95.097528,0l0,28.543009m0,88.190191c0,1.273309 0.386092,1.336776 2.254405,0.364936c3.314834,-1.725512 3.354501,-1.902691 0.417825,-1.902691c-1.734768,0 -2.67223,0.53947 -2.67223,1.537755m0,160.735739c0,25.343209 0.249902,46.07712 0.555337,46.07712c1.22042,0 62.156776,-17.310654 63.59272,-18.065648c1.278598,-0.671694 1.84848,-6.197299 3.320123,-32.191046c0.978451,-17.259087 2.036236,-33.747312 2.35225,-36.639032l0.573848,-5.259837l-35.196478,0l-35.1978,0l0,46.078442" id="path2"/>
   <path fill-rule="evenodd" fill="#68b5e0" d="m297.505842,97.912951c20.288319,0.152057 53.19337,0.152057 73.123364,0c19.931316,-0.152057 3.332023,-0.275024 -36.884967,-0.275024c-40.218313,0 -56.525393,0.12429 -36.238396,0.275024m-151.328063,173.291649c9.227853,0.165279 24.327736,0.165279 33.555589,0c9.229175,-0.165279 1.677912,-0.301469 -16.777794,-0.301469c-18.455706,0 -26.00697,0.13619 -16.777794,0.301469m16.728872,31.045994c21.984742,0.215524 29.72244,0.60426 30.376944,1.525855c0.63996,0.901762 0.765572,0.830361 0.466748,-0.265769c-0.351714,-1.29182 -4.602688,-1.506022 -30.376944,-1.525855l-29.967053,-0.0238l29.500305,0.289569" id="path3"/>
   <path fill-rule="evenodd" fill="#9acdea" d="m262.468032,214.610451c-0.255191,0.413858 29.651039,0.646571 66.457995,0.519637c36.808278,-0.126934 56.329703,-0.351714 43.382413,-0.498481c-61.022302,-0.692849 -109.418616,-0.702105 -109.840408,-0.021156m-47.174572,56.594149c10.880642,0.161312 28.68581,0.161312 39.567775,0c10.880642,-0.161312 1.978058,-0.293535 -19.784549,-0.293535c-21.761285,0 -30.663869,0.132223 -19.783226,0.293535m115.216601,15.277062c0,2.479184 0.19569,3.493335 0.435014,2.254405c0.238002,-1.240253 0.238002,-3.268556 0,-4.507487c-0.239324,-1.240253 -0.435014,-0.226102 -0.435014,2.253082m-1.000929,16.026767c0,2.479184 0.19569,3.493335 0.433692,2.254405c0.239324,-1.240253 0.239324,-3.268556 0,-4.507487c-0.238002,-1.240253 -0.433692,-0.226102 -0.433692,2.253082m-1.002251,17.029018c0,2.479184 0.19569,3.493335 0.435014,2.254405c0.238002,-1.240253 0.238002,-3.268556 0,-4.507487c-0.239324,-1.240253 -0.435014,-0.226102 -0.435014,2.253082m-1.000929,16.026767c0,2.479184 0.19569,3.493335 0.433692,2.254405c0.239324,-1.240253 0.239324,-3.268556 0,-4.507487c-0.238002,-1.240253 -0.433692,-0.226102 -0.433692,2.253082" id="path4"/>
  </g>
 </g>
</svg>