<?xml version="1.0"?>
<svg width="512" height="512" xmlns="http://www.w3.org/2000/svg" xmlns:svg="http://www.w3.org/2000/svg">
 <g>
  <title>Layer 1</title>
  <g stroke="null" id="svgg">
   <path fill-rule="evenodd" fill="#ebebeb" d="m112.273187,97.612183c0,3.674699 13.845793,164.998992 14.531823,169.32379l0.528894,3.334547l62.833687,0l62.83241,0l0,-28.729109l0,-28.729109l-37.427589,0c-20.584727,0 -37.432699,-0.345406 -37.439087,-0.769612c-0.006388,-0.422892 -1.122943,-13.004601 -2.483505,-27.959498c-1.359284,-14.953584 -2.477117,-28.22873 -2.483505,-29.498721l-0.011498,-2.307522l39.922591,0l39.922591,0l0,-28.729109l0,-28.729109l-70.363407,0l-70.363407,0l0,2.793454m17.484179,205.235505c0.256782,1.552357 2.082362,21.751383 4.056135,44.889644c1.973773,23.136947 3.712482,42.197316 3.864507,42.356229c0.152025,0.160226 25.375438,7.443959 56.052596,16.188114c30.677158,8.742843 56.568715,16.148715 57.538355,16.457347c1.659502,0.527959 1.746374,-1.172804 1.497257,-29.452755l-0.265725,-30.012234l-31.438562,-8.794062l-31.438562,-8.795376l-1.895844,-22.829628l-1.894566,-22.828315l-28.271582,0l-28.271582,0l0.467573,2.821034" id="path0"/>
   <path fill-rule="evenodd" fill="#ffffff" d="m253.000002,122.764542l0,27.945814l67.807084,0l67.807084,0l0.568498,-4.242654c0.534005,-3.983316 4.544149,-48.759217 4.544149,-50.736823c0,-0.542947 -28.496426,-0.912151 -70.363407,-0.912151l-70.363407,0l0,27.945814m0,114.776492l0,27.945814l34.907036,0l34.907036,0l-0.463741,2.745397c-0.255505,1.508755 -1.595626,15.993309 -2.977906,32.18719c-1.381002,16.193881 -2.765837,31.507548 -3.076275,34.030656l-0.563388,4.586307l-31.358078,8.388216l-31.358078,8.386938l-0.008943,29.110915l-0.007665,29.109637l10.728637,-2.911475c45.102947,-12.239947 103.314556,-28.742988 103.955873,-29.471176c0.42797,-0.488014 4.005034,-37.713754 7.948748,-82.727274c3.944991,-45.012243 7.422408,-83.525726 7.730291,-85.583816l0.558278,-3.743142l-65.460275,0l-65.461552,0l0,27.945814" id="path1"/>
   <path fill-rule="evenodd" fill="#e44d26" d="m27.467383,3.245885c0.107312,8.162094 40.83091,457.193516 41.52205,457.847607c1.180431,1.116555 180.940681,50.927174 183.766562,50.920786c2.781167,-0.006388 183.06137,-49.832337 184.235413,-50.918231c0.661757,-0.611933 41.520772,-451.226206 41.561653,-458.349674c0.008943,-1.658225 -11.392949,-1.746374 -225.553059,-1.746374l-225.562002,0l0.029383,2.245885m409.486977,35.430821c0.306606,0.53656 -31.800101,364.134913 -34.438185,389.994532l-0.305328,2.993236l-74.355667,20.679264c-40.896064,11.373787 -74.461701,20.692039 -74.590731,20.709924c-0.12903,0.016608 -0.353874,-13.049897 -0.499511,-29.038096l-0.264447,-29.070034l-57.387607,-15.925601c-31.565036,-8.759975 -57.66483,-16.225819 -58.002096,-16.592468c-0.563388,-0.613211 -7.93725,-81.668208 -7.891259,-86.748916l0.02044,-2.245885l28.399335,0l28.399335,0l0.525062,3.243631c0.287443,1.7847 1.260915,11.777484 2.162846,22.207181c0.903209,10.429697 1.761704,19.101523 1.908619,19.271433c0.148193,0.168633 13.310511,3.833846 29.250165,8.144209c15.939653,4.310362 29.911922,8.131433 31.048917,8.492972l2.065755,0.655369l0,-44.480793l0,-44.480793l-63.376635,0c-34.85849,0 -63.37919,-0.337266 -63.381745,-0.748628c-0.001278,-0.41264 -3.368828,-38.251591 -7.481174,-84.087836c-4.113624,-45.836245 -7.479897,-84.123607 -7.482452,-85.084304c-0.002555,-1.648005 4.035695,-1.746374 70.859086,-1.746374l70.862919,0l0,-28.445325l0,-28.445325l91.763194,0c50.469821,0 91.9561,0.337266 92.191164,0.748628m-262.80435,115.277281c-0.003833,3.518298 4.030585,49.888548 4.558202,52.397603l0.472683,2.245885l36.910192,0l36.908915,0l0,-28.445325l0,-28.444048l-39.42308,0l-39.424357,0l-0.002555,2.245885" id="path2"/>
   <path fill-rule="evenodd" fill="#e67557" d="m158.433923,266.235476c17.427968,0.153303 45.947389,0.153303 63.376635,0c17.429245,-0.153303 3.168257,-0.2785 -31.688956,-0.2785c-34.857213,0 -49.116924,0.125197 -31.687679,0.2785" id="path3"/>
   <path fill-rule="evenodd" fill="#f16529" d="m251.722487,66.373403l0,28.445325l73.397547,0l73.397547,-0.001278l-0.618641,5.240399c-0.894915,7.580821 -4.674178,47.839401 -4.684753,49.903878c-0.007931,1.64545 -4.068756,1.746374 -70.749816,1.746374l-70.741884,0l0,28.444048l0,28.445325l68.140419,0l68.139097,0l-0.552547,4.241376c-0.302711,2.332757 -3.972258,41.444121 -8.154695,86.913717c-4.181116,45.469596 -7.758131,82.806481 -7.94716,82.970004c-0.190351,0.163523 -27.066874,7.444126 -59.726634,16.177273l-59.381623,15.87961l-0.27363,29.153073c-0.150695,16.03419 -0.150695,29.137743 0,29.121135c0.149373,-0.017885 34.895064,-9.336138 77.211179,-20.709924l76.937549,-20.679264l0.31593,-2.993236c2.729688,-25.859619 35.951249,-389.457973 35.633997,-389.994532c-0.243226,-0.411362 -43.170051,-0.748628 -95.392356,-0.748628l-94.949525,0l0,28.445325m0,244.446346l0,44.333878l11.101172,-2.92425c6.107099,-1.608401 20.105839,-5.253174 31.109192,-8.099495c11.003353,-2.845044 20.547347,-5.695197 21.205645,-6.332681c0.728357,-0.703915 2.325192,-13.872621 4.060824,-33.491541c1.574363,-17.781842 3.106425,-33.565637 3.403848,-35.075669l0.54065,-2.744119l-35.710666,0l-35.710666,0l0,44.333878" id="path4"/>
   <path fill-rule="evenodd" fill="#e89c89" d="m197.357491,209.344826c10.293002,0.162245 27.135864,0.162245 37.427589,0c10.293002,-0.162245 1.871571,-0.295108 -18.713156,-0.295108c-20.586004,0 -29.006158,0.132862 -18.714433,0.295108" id="path5"/>
   <path fill-rule="evenodd" fill="#f8b294" d="m285.759522,209.346103c18.291573,0.152025 47.933938,0.152025 65.871637,-0.001278c17.937699,-0.152025 2.971518,-0.275945 -33.257754,-0.275945c-36.229273,0 -50.906733,0.12392 -32.613883,0.277222" id="path6"/>
   <path fill-rule="evenodd" fill="#e9c4ba" d="m192.866998,151.457707c11.115727,0.15969 29.305098,0.15969 40.420825,0c11.115727,-0.160968 2.021041,-0.292553 -20.210413,-0.292553c-22.231454,0 -31.32614,0.131585 -20.210413,0.292553m-49.343045,142.722306c8.130156,0.167356 21.154502,0.167356 28.943559,-0.001278c7.789057,-0.168633 1.136995,-0.305328 -14.782218,-0.305328c-15.919213,0 -22.292775,0.137972 -14.161342,0.306606" id="path7"/>
   <path fill-rule="evenodd" fill="#fcd9ca" d="m286.684449,151.457707c18.801305,0.152025 49.566612,0.152025 68.367917,0c18.801305,-0.152025 3.418651,-0.275945 -34.183958,-0.275945c-37.60261,0 -52.985263,0.12392 -34.183958,0.275945" id="path8"/>
   <path fill-rule="evenodd" fill="#f58c5f" d="m269.653791,266.234199c9.433229,0.163523 25.153149,0.163523 34.931309,0c9.779438,-0.163523 2.060644,-0.297663 -17.152023,-0.297663c-19.212667,0 -27.213793,0.132862 -17.779286,0.297663" id="path9"/>
  </g>
 </g>
</svg>