<?xml version="1.0"?>
<svg width="512" height="512" xmlns="http://www.w3.org/2000/svg" xmlns:svg="http://www.w3.org/2000/svg">
 <g>
  <title>Layer 1</title>
  <g stroke="null" transform="translate(2,2) translate(1,0) translate(1,0) translate(1,0) translate(24.2189998626709,0) scale(1.2728060483932495) translate(-24.2189998626709,0) " id="svgg">
   <path fill-rule="evenodd" fill="#ffffff" d="m216.146,77.865c-0.287,0.286 -0.521,34.739 -0.521,76.562l0,76.042l1.658,0c1.447,0 18.462,-2.978 56.086,-9.815c5.764,-1.047 10.991,-1.904 11.617,-1.904c1.196,0 1.203,-0.621 -0.339,26.765l-0.474,8.406l-4.001,1.114c-2.2,0.612 -16.832,4.482 -32.516,8.599c-15.683,4.117 -29.306,7.824 -30.273,8.237l-1.758,0.752l0,20.329c0,11.181 0.165,20.329 0.367,20.329c0.202,0 15.934,-4.056 34.961,-9.015c19.027,-4.958 40.219,-10.46 47.094,-12.226c6.875,-1.766 12.726,-3.422 13.003,-3.68c0.276,-0.258 1.077,-7.852 1.779,-16.876c0.703,-9.023 2.495,-32.05 3.984,-51.171c1.489,-19.122 2.929,-37.267 3.201,-40.323c0.615,-6.913 1.255,-6.645 -11.811,-4.94c-16.677,2.178 -56.124,6.994 -57.226,6.987c-1.429,-0.008 -1.429,-62.495 0,-62.528c0.537,-0.012 17.209,-0.002 37.05,0.022c23.319,0.028 36.244,-0.234 36.557,-0.74c0.544,-0.881 3.517,-32.979 3.532,-38.127l0.009,-3.32l-55.729,0c-30.651,0 -55.964,0.234 -56.25,0.521m-62.249,0.846c-0.005,0.322 -0.001,41.816 0.009,92.208c0.015,73.565 -0.177,91.698 -0.977,92.005c-0.791,0.303 -34.317,-8.648 -55.663,-14.862c-6.339,-1.845 -11.704,-3.058 -11.925,-2.696c-0.113,0.185 -0.235,9.122 -0.271,19.858l-0.066,19.521l2.648,0.55c1.457,0.303 15.858,4.252 32.002,8.776c27.495,7.704 36.486,10.179 54.354,14.963c3.966,1.062 8.126,2.278 9.245,2.704c1.119,0.425 2.269,0.628 2.555,0.452c0.286,-0.177 0.43,-52.914 0.32,-117.193l-0.201,-116.872l-16.01,0c-8.806,0 -16.015,0.264 -16.02,0.586" id="path0"/>
   <path fill-rule="evenodd" fill="#dab92d" d="m24.24,2.539c0.057,6.59 31.912,356.261 32.504,356.796c1.409,1.271 143.08,40.665 146.244,40.665c1.875,0 27.403,-6.814 60.097,-16.042c31.26,-8.823 62.638,-17.666 69.728,-19.651c7.089,-1.986 13.187,-3.87 13.549,-4.188c0.506,-0.443 10.645,-107.928 13.335,-141.369c0.26,-3.223 0.638,-7.441 0.841,-9.375c0.794,-7.557 1.815,-19.169 2.301,-26.172c0.119,-1.719 0.617,-6.992 1.107,-11.719c0.489,-4.726 1.045,-10.879 1.234,-13.671c0.19,-2.793 1.39,-16.153 2.667,-29.688c1.277,-13.535 2.508,-26.719 2.736,-29.297c2.778,-31.516 8.408,-92.942 8.753,-95.508l0.447,-3.32l-177.782,0l-177.782,0l0.021,2.539m321.625,30.023c0.277,0.722 -0.087,7.841 -0.81,15.821c-3.07,33.896 -14.517,162.348 -17.724,198.883c-0.868,9.882 -2.12,23.769 -2.782,30.859c-0.663,7.09 -2.175,23.872 -3.36,37.293c-1.186,13.422 -2.352,24.599 -2.592,24.839c-0.24,0.24 -17.618,5.138 -38.618,10.883c-21,5.746 -46.62,12.762 -56.932,15.591c-10.312,2.829 -19.365,5.144 -20.117,5.144c-1.783,0 -2.173,-339.388 -0.391,-340.108c3.117,-1.257 142.836,-0.482 143.326,0.795m-158.365,162.704c0,64.858 -0.292,118.104 -0.65,118.325c-0.357,0.221 -3.609,-0.473 -7.226,-1.541c-3.618,-1.069 -26.616,-7.502 -51.108,-14.297l-44.532,-12.354l-0.208,-20.824c-0.189,-18.956 -0.091,-20.825 1.087,-20.825c0.713,0 15.869,4.043 33.681,8.984c17.812,4.942 32.704,8.985 33.093,8.985c0.418,0 0.707,-37.71 0.707,-92.188l0,-92.187l17.578,0l17.578,0l0,117.922" id="path1"/>
   <path fill-rule="evenodd" fill="#e3d393" d="m152.344,169.531c0,54.478 -0.289,92.188 -0.707,92.188c-0.389,0 -15.281,-4.043 -33.093,-8.985c-17.812,-4.941 -32.968,-8.984 -33.681,-8.984c-1.178,0 -1.276,1.869 -1.087,20.825l0.208,20.824l44.532,12.354c24.492,6.795 47.49,13.228 51.108,14.297c3.617,1.068 6.869,1.762 7.226,1.541c0.358,-0.221 0.65,-53.467 0.65,-118.325l0,-117.922l-17.578,0l-17.578,0l0,92.187m33.784,25.466c0.11,64.279 -0.034,117.016 -0.32,117.193c-0.286,0.176 -1.436,-0.027 -2.555,-0.452c-1.119,-0.426 -5.279,-1.642 -9.245,-2.704c-17.868,-4.784 -26.859,-7.259 -54.354,-14.963c-16.144,-4.524 -30.545,-8.473 -32.002,-8.776l-2.648,-0.55l0.066,-19.521c0.036,-10.736 0.158,-19.673 0.271,-19.858c0.221,-0.362 5.586,0.851 11.925,2.696c21.346,6.214 54.872,15.165 55.663,14.862c0.8,-0.307 0.992,-18.44 0.977,-92.005c-0.01,-50.392 -0.014,-91.886 -0.009,-92.208c0.005,-0.322 7.214,-0.586 16.02,-0.586l16.01,0l0.201,116.872" id="path2"/>
   <path fill-rule="evenodd" fill="#ffd83a" d="m202.539,31.767c-1.782,0.72 -1.392,340.108 0.391,340.108c0.752,0 9.805,-2.315 20.117,-5.144c10.312,-2.829 35.932,-9.845 56.932,-15.591c21,-5.745 38.378,-10.643 38.618,-10.883c0.24,-0.24 1.406,-11.417 2.592,-24.839c1.185,-13.421 2.697,-30.203 3.36,-37.293c0.662,-7.09 1.914,-20.977 2.782,-30.859c3.207,-36.535 14.654,-164.987 17.724,-198.883c0.723,-7.98 1.087,-15.099 0.81,-15.821c-0.49,-1.277 -140.209,-2.052 -143.326,-0.795m125.577,48.897c-0.015,5.148 -2.988,37.246 -3.532,38.127c-0.313,0.506 -13.238,0.768 -36.557,0.74c-19.841,-0.024 -36.513,-0.034 -37.05,-0.022c-1.429,0.033 -1.429,62.52 0,62.528c1.102,0.007 40.549,-4.809 57.226,-6.987c13.066,-1.705 12.426,-1.973 11.811,4.94c-0.272,3.056 -1.712,21.201 -3.201,40.323c-1.489,19.121 -3.281,42.148 -3.984,51.171c-0.702,9.024 -1.503,16.618 -1.779,16.876c-0.277,0.258 -6.128,1.914 -13.003,3.68c-6.875,1.766 -28.067,7.268 -47.094,12.226c-19.027,4.959 -34.759,9.015 -34.961,9.015c-0.202,0 -0.367,-9.148 -0.367,-20.329l0,-20.329l1.758,-0.752c0.967,-0.413 14.59,-4.12 30.273,-8.237c15.684,-4.117 30.316,-7.987 32.516,-8.599l4.001,-1.114l0.474,-8.406c1.542,-27.386 1.535,-26.765 0.339,-26.765c-0.626,0 -5.853,0.857 -11.617,1.904c-37.624,6.837 -54.639,9.815 -56.086,9.815l-1.658,0l0,-76.042c0,-41.823 0.234,-76.276 0.521,-76.562c0.286,-0.287 25.599,-0.521 56.25,-0.521l55.729,0l-0.009,3.32" id="path3"/>
   <path fill-rule="evenodd" fill="#ffff00" id="path4"/>
  </g>
 </g>
</svg>