<?xml version="1.0"?>
<svg width="512" height="512" xmlns="http://www.w3.org/2000/svg" xmlns:svg="http://www.w3.org/2000/svg">
 <g>
  <title>Layer 1</title>
  <g stroke="null" id="svgg">
   <path fill-rule="evenodd" fill="#231f20" d="m181.906669,10.000842c-18.514394,9.225371 -27.686014,43.181865 -15.294992,56.626691c4.823446,5.232237 8.632695,6.003139 32.348207,6.547722l22.231701,0.510635l1.803488,-5.29306c2.75969,-8.098014 2.483863,-9.321557 -2.092046,-9.321557c-3.89129,0 -3.894119,-0.002829 -2.336755,-3.038347c7.510997,-14.638664 8.652498,-30.848837 2.783737,-39.525382c-6.410515,-9.478567 -26.748201,-12.833761 -39.443341,-6.506701m222.448561,10.116506c-2.966207,4.103465 -7.977782,11.045833 -11.136361,15.427955l-5.742871,7.96788l-0.718566,-3.824809l-0.717152,-3.823394l-8.334236,0l-8.33565,0l0.76383,4.696141c0.420107,2.582878 1.755395,7.680737 2.967622,11.327318c2.12175,6.377982 2.176916,10.959548 0.216419,17.957081c-0.677546,2.42021 -0.473858,2.486692 7.610012,2.486692l8.30736,0l1.290024,-5.379345c1.009953,-4.209553 5.11059,-10.515395 18.865191,-29.008572c9.665281,-12.995014 17.587897,-24.001241 17.606285,-24.45671c0.016974,-0.456884 -3.855928,-0.828897 -8.608649,-0.828897l-8.639768,0l-5.39349,7.45866m-257.617282,0.016974c-1.32963,0.858602 -3.697504,8.287557 -3.70882,11.635679c-0.004244,1.752566 0.912353,1.943523 7.925445,1.65638l7.932518,-0.323921l1.362164,-6.066792c0.749685,-3.336806 1.130186,-6.444463 0.844457,-6.907005c-0.664815,-1.073606 -12.689482,-1.069362 -14.355764,0.005658m89.600107,0c-0.643598,0.446982 -1.775198,3.547567 -2.513567,6.890031c-0.739784,3.342464 -2.326853,10.448914 -3.527764,15.790067c-5.693364,25.337944 -2.29149,29.517792 24.026702,29.517792l16.371427,0l5.240724,-24.588259c6.567525,-30.821962 6.632592,-28.455503 -0.776561,-28.455503c-8.117817,0 -8.281899,0.264512 -13.282158,21.368856l-4.363733,18.413965l-3.925238,-0.014145c-10.231081,-0.039606 -10.552172,-1.223543 -6.146004,-22.639077c3.754084,-18.248468 3.988891,-17.132428 -3.5801,-17.112625c-3.49523,0.009902 -6.880129,0.381915 -7.523727,0.828897m62.717529,1.250418c-12.282106,4.243501 -20.107122,18.06034 -20.107122,35.505372c0,12.796984 4.482551,15.410981 27.874143,16.256852l16.269582,0.588432l0.995808,-2.635214c0.548826,-1.449863 1.32963,-4.624001 1.737006,-7.055528l0.739784,-4.420313l-13.133635,-0.033948c-13.679632,-0.035363 -19.012299,-1.582826 -19.012299,-5.516551c0,-1.370651 2.762519,-1.632333 17.163547,-1.632333c20.126925,0 18.640285,1.155647 18.706767,-14.54955c0.07214,-17.163547 -11.54798,-23.305307 -31.233581,-16.507219m45.365854,-1.332459c-2.735644,0.544583 -4.039813,2.489521 -5.044108,7.525142c-0.364941,1.823291 -2.421625,11.768643 -4.573079,22.101567c-5.162926,24.79619 -5.468458,22.822962 3.475427,22.428317c7.202636,-0.318263 7.413396,-0.413034 8.178641,-3.642338c0.432837,-1.823291 2.377775,-10.153283 4.322713,-18.510151l3.536251,-15.194562l15.986682,0l15.985268,0l-0.690276,-2.486692c-2.1656,-7.791068 -4.244915,-10.786979 -8.191371,-11.808249c-3.995963,-1.034 -28.339514,-1.338117 -32.986147,-0.413034m-139.292917,4.81213c4.094978,4.096393 3.971917,8.352624 -0.684618,23.432612l-2.984596,9.669524l-8.825067,0c-14.161977,0 -16.744855,-4.749892 -12.014766,-22.101567c3.577271,-13.122319 16.56097,-18.948646 24.509047,-11.000569m109.581339,11.22406c1.785099,2.84456 0.635111,3.217988 -8.827896,2.864363l-8.700591,-0.325335l2.543272,-2.541857c3.162823,-3.164237 13.000672,-3.162823 14.985216,0.002829m-173.185759,1.710131c-0.903866,3.213745 -4.848907,20.279691 -6.322816,27.350778c-1.903917,9.137672 -3.796519,12.549447 -7.392179,13.337323c-1.660623,0.363527 -3.571613,0.826068 -4.24633,1.026927c-0.674717,0.200859 -1.783685,2.582878 -2.465474,5.290231c-0.683204,2.708768 -1.57151,5.785306 -1.974642,6.837694c-0.670473,1.746908 0.192372,1.878456 10.017491,1.523417c15.954149,-0.577116 16.631695,-1.579997 24.418519,-36.211208c5.116248,-22.756481 5.420365,-21.088785 -3.830467,-21.088785c-6.352521,0 -7.754291,0.330993 -8.204102,1.933622" id="path0"/>
   <path fill-rule="evenodd" fill="#0868ac" d="m289.455371,101.830202c-19.770471,27.016956 -22.902174,57.561675 -8.791119,85.705988c33.714615,67.239686 124.668399,77.613632 160.405749,18.296561c5.931,-9.844922 5.499577,-10.61441 -1.660623,-2.963378c-17.831191,19.056148 -47.135394,24.240292 -79.790548,14.115299c-52.408651,-16.248365 -84.462642,-74.286727 -65.146226,-117.95518c3.305687,-7.472805 1.943523,-6.711804 -5.017233,2.800711m-77.020956,11.106656c-41.318968,48.057648 -49.515998,99.296507 -24.176639,151.126627c33.315726,68.144967 108.144206,102.712525 181.86089,84.012831c37.690775,-9.560608 71.227163,-38.205653 84.452741,-72.132443c2.836073,-7.274775 1.72569,-7.359645 -3.669214,-0.284315c-28.789325,37.751599 -87.864515,52.012591 -141.467004,34.15311c-84.118919,-28.028324 -132.558481,-120.753062 -99.012192,-189.528896c4.410412,-9.041486 4.850322,-10.646944 2.011419,-7.346915m-116.868844,54.876954c-29.148608,37.496989 -37.468699,61.628364 -36.209793,105.009674c4.000207,137.814765 152.700966,239.009531 284.037319,193.294296c42.483102,-14.787186 79.154023,-46.889271 99.273875,-86.905484c5.12332,-10.188646 4.792327,-11.986476 -0.937814,-5.107761c-50.192129,60.23791 -154.129611,70.874952 -235.798615,24.129961c-90.474268,-51.786271 -134.582631,-160.540126 -97.61608,-240.689957c6.271894,-13.599006 5.021476,-12.593296 -12.748891,10.269272" id="path1"/>
  </g>
 </g>
</svg>